<?xml version="1.0" encoding="UTF-8"?>
<svg id="Layer_1" data-name="Layer 1" xmlns="http://www.w3.org/2000/svg" viewBox="0 0 1125 2351.02">
  <defs>
    <style>
      .cls-1 {
        fill: #141414;
      }

      .cls-2 {
        fill: #fce10a;
      }

      .cls-3 {
        fill: #0aaba9;
      }

      .cls-4 {
        fill: #d9d7da;
      }

      .cls-5 {
        fill: #07aaa9;
      }

      .cls-6 {
        fill: #bbbbbc;
      }

      .cls-7 {
        fill: none;
        stroke: #818182;
        stroke-miterlimit: 10;
        stroke-width: 5px;
      }

      .cls-8 {
        fill: #030303;
      }

      .cls-9 {
        fill: #818182;
      }

      .cls-10 {
        fill: #afb6bd;
      }

      .cls-11 {
        fill: #da0568;
      }

      .cls-12 {
        fill: #0f0f0f;
      }

      .cls-13 {
        fill: #1a1a1a;
      }

      .cls-14 {
        fill: #040404;
      }
    </style>
  </defs>
  <polygon class="cls-4" points="9.97 9.83 9.97 2341.89 131.52 2341.89 131.52 2098.82 131.52 1178.88 131.52 355.7 997.06 355.7 997.06 2341.89 1119.39 2341.89 1119.39 9.83 9.97 9.83"/>
  <g>
    <g>
      <path class="cls-3" d="M414.18,267.97l-25.14,24.99c-.86-.07-.83-.58-.92-1.26-.41-3.41-.47-15.61.04-18.9.35-2.27,3.18-4.84,5.5-4.84h20.51Z"/>
      <path class="cls-5" d="M417.03,269.76v34.95c0,.19-2.02.44-2.32-.36-2.18-3.25-12.65-11.38-13.29-14.52-.51-2.47,0-4.57,1.51-6.52,2.06-2.67,10.35-10.97,13.02-13.01.36-.28.45-.69,1.07-.53Z"/>
      <path class="cls-10" d="M414.54,261.91l-24.95-24.74c.38-.7.83-.85,1.57-.95,3.29-.45,14.86-.4,18.17.05,2.35.32,5.2,2.7,5.2,5.14v20.51Z"/>
      <path class="cls-10" d="M412.4,265.12h-34.59l.34-1.98c3.63-2.56,10.83-12.57,14.63-13.54,1.87-.48,3.95-.21,5.54.9,2.2,1.54,11.8,11.27,13.55,13.55.28.36.69.45.53,1.07Z"/>
    </g>
    <g>
      <path class="cls-2" d="M421.13,262.63c-.27-.08-.81-.75-.36-1.08,7.4-7.22,14.45-14.83,22.13-21.73.84-.76,1.32-2.56,3.15-2.18.46.1.57,1.56.6,1.97.28,4.07.53,14.01-.1,17.76-.39,2.34-3,5.26-5.44,5.26h-19.97Z"/>
      <path class="cls-2" d="M426.87,252.15l-9.12,9.05c-.09-2.67.1-5.37.01-8.04-.27-7.77-1.27-18.86-.39-26.39.16-1.39.8-1.61,2-.89,3.33,3.88,7.55,7.04,11.04,10.71,6.71,7.05,1.34,10.08-3.54,15.56Z"/>
      <path class="cls-11" d="M456.08,265.12c1.09.18,1.19,1.13.55,1.98-4.38,3.45-8.52,9.63-12.85,12.83-2.15,1.59-5.16,1.85-7.32.17l-14.8-14.98h34.41Z"/>
      <path class="cls-11" d="M420.24,268.33c2.6,3.02,24.78,23.38,24.63,25.14-.07.86-.58.83-1.26.92-3.54.43-14.67.43-18.17-.05-.94-.13-2.51-.78-3.24-1.39-.44-.37-1.96-2.73-1.96-3.04v-21.58Z"/>
    </g>
  </g>
  <path class="cls-14" d="M493.07,264.7c.13.23,3.11,2.05,4,3.3,4.21,5.91,2.49,16.36-4.35,19.5-4.57,2.1-19.8,1.98-25.24,1.54-.65-.05-1.31-.05-1.86-.46v-46.91c.55-.4,1.21-.4,1.86-.46,5.26-.43,18.16-.49,22.94.98,7.87,2.43,9.05,13.57,4.36,19.54-.65.82-2.62,1.41-1.71,2.96ZM473.74,250.32c-.41,1.45,0,7.58,0,9.63,0,.04.5.53.53.53h11.41c.38,0,1.81-1.38,2.12-1.81,2.12-2.97,1.44-8.02-2.36-9-1.54-.4-8.87-.54-10.45-.23-.42.08-1.16.53-1.26.88ZM474.27,269.04c-.12.18-.53.44-.53.53v10.34c0,.06.55.63.72.71.75.35,9.85.34,11.23.18,4.34-.49,6.68-6.47,3.91-9.97-.38-.49-2.37-1.8-2.84-1.8h-12.48Z"/>
  <path class="cls-14" d="M630.92,241.31c3.69-.67,17.45-.38,21.21.37,12.09,2.39,15.41,18.34,8.13,27.19-1.16,1.41-4.42,3.36-4.32,4.98.13,2.05,7.11,9.74,8.09,12.3,1.02,3.63-6.71,3.44-8.6,2.15-2.33-1.85-8.45-13.72-10.16-14.44-1.18-.49-6.99-.53-7.66.88-.76,1.61.12,9.41-.17,11.95-.34,2.95-3.93,2.59-6.25,2.32-1.84-.22-2.17-.92-2.33-2.67-1.25-13.57.97-29.04.01-42.82.05-1.43.71-1.98,2.05-2.23ZM639.11,249.51c-1.05.23-1.56.83-1.7,1.87-.32,2.4-.27,9.68.01,12.15.14,1.21.3,1.82,1.59,1.98,2.37.28,8.32.24,10.72-.02,7.03-.75,7.7-12.98,1.85-15.41-1.93-.8-10.4-1.02-12.48-.57Z"/>
  <path class="cls-8" d="M585.36,241.23v46.18c0,.58-1.88.8-2.34.2l-24.57-24.29c-1.22-.72-1.83-.49-2,.89-.83,6.87.63,15.43.03,22.5-.12,1.42-.09,2.05-1.64,2.27-1.06.15-7.29.32-7.29-.86v-46.54c0-.1,1.72-.56,1.97-.03l25.64,26.08c1.1.76,2.34.47,2.34-.91v-25.32s.5-.53.53-.53h6.42c.12,0,.54.47.89.36Z"/>
  <path class="cls-14" d="M521.42,241.29c2.1-.63,2.87,2.23,3.62,3.74,6.23,12.44,13.02,27.32,18.3,40.19.49,1.19,1.69,2.86.21,3.54-.95.44-4.63.39-5.81.28-1.52-.14-1.88-.29-2.73-1.55-1.07-1.6-1.72-5.74-3.65-5.98l-19.21.09c-1.47.44-2.28,6.3-4.26,7.15-1.12.48-7.39.64-7.95-.45l21.49-47.01ZM526.79,272.88c.23-.23.42-.85.42-1.18.02-.86-2.74-7.35-3.35-8.38-.64-1.09-1.26-1.94-2.7-1.23-.56.28-4.23,8.46-4.26,9.31-.02.54.24,1.48.7,1.75.69.41,8.59.33,9.19-.27Z"/>
  <path class="cls-14" d="M612.64,249.43c-.1.03-.98.9-1.06,1.08l-.16,36.92c-.25,2.47-8.08,2.35-8.5-.1l-.25-37.19c-.33-.59-.8-.65-1.41-.73-2.25-.29-8.69.57-10.18-.16-.98-.48-.95-5.69-.64-6.71.27-.91,1.71-1.4,2.59-1.33,9.13.82,20-1.03,28.91,0,.48.06,1.95.46,1.95.9v6.78s-.5.53-.53.53c-2.26,0-9.08-.45-10.7,0Z"/>
  <path class="cls-14" d="M718.99,241.3c7.06.37,15.43-.92,22.31.38,8.41,1.59,11.38,12.31,6.98,18.93-.81,1.22-3.5,2.67-2.46,4,1.17,1.5,3.04,1.81,4.49,4.42,4.09,7.38.71,17.65-8.02,19.47-4.31.9-18.24,1.1-22.68.53-.61-.08-1.08-.13-1.41-.73v-46.37l.79-.64ZM726.59,260.49h11.59c.26,0,1.61-.97,1.91-1.3,2.38-2.6,2.06-7.7-1.37-9.22-2.76-1.23-9.02-.45-12.13-.18v10.7ZM727.12,269.04c-.12.18-.53.44-.53.53v10.7s.5.53.53.53h11.77c.53,0,2.38-1.3,2.83-1.81,2.24-2.5,2.42-7.04-.53-9.06-.26-.18-1.81-.91-1.95-.91h-12.13Z"/>
  <path class="cls-14" d="M712.99,288.61c-.41.65-7.25.57-8.27-.02-1.38-.8-2.45-6.51-4.06-7-5.9.32-12.7-.66-18.5-.09-3.44.34-3.25,6.33-5.23,7.25-.95.44-7.7.45-8.07-.14-.2-.32-.05-1.07.04-1.47l20.84-45.59c.83-.35,2.02-.71,2.58.24l20.64,45.34c.09.4.24,1.15.04,1.47ZM689.59,262.36c-.33.31-3.46,7.47-3.68,8.29-.33,1.22-.1,2.4,1.28,2.67.86.17,7.44.11,8.02-.17,1-.49.74-1.82.55-2.7s-2.95-7.32-3.45-7.96c-.62-.79-2.02-.8-2.73-.13Z"/>
  <path class="cls-1" d="M525.8,299.36c.89.06,1.97-.29,2.67.36l4.1,6.77v-7.13h2.14v9.81c0,.67-1.99.72-2.7.2-1.17-.84-2.89-6.09-4.43-7.16v7.49h-1.78v-10.34Z"/>
  <path class="cls-1" d="M603.19,299.36c.79-.08,2.09-.47,2.76.09s2.8,5.37,3.57,6.58c.23.36-.04.63.8.46v-7.13h1.78v10.34c-.75-.07-1.86.22-2.5-.17-.9-.55-3-6.03-3.91-6.79-1.22-1.03-.36.99-.36,1.08v5.35c0,.71-2.14.71-2.14,0v-9.81Z"/>
  <path class="cls-12" d="M503.69,299.36h6.24c1.28,0,1.75,2.29,1.6,3.36-.09.6-.61,1.14-.64,1.51-.07.97,1.79,1.82.44,4.01s-7.64,1.65-7.64.92v-9.81ZM505.47,303.64c5.82.88,5.82-3.73,0-2.86v2.86ZM509.67,305.51c-.76-.75-3.13-.35-4.19-.44.1.8-.25,2.22.17,2.88.56.9,6.34-.15,4.03-2.43Z"/>
  <path class="cls-12" d="M705.72,299.36c1.13.19,1.78,2.36,1.6,3.36-.09.55-.68.97-.7,1.45-.03.96,1.38,2.17.52,4.1-.93,2.07-7.66,1.66-7.66.9v-9.81c1.91.22,4.42-.31,6.24,0ZM701.27,303.64c5.82.88,5.82-3.73,0-2.86v2.86ZM705.46,305.51c-.78-.75-3.12-.35-4.19-.45v2.86c1.54.57,6.32-.36,4.19-2.41Z"/>
  <path class="cls-12" d="M655.44,299.36c1.82.38,2.37,3.22,1.56,4.77-.46.87-1.63,1.24-1.69,1.34-.54.93,2.25,2.95,2.09,4.23-2.71.92-3.18-3.6-4.81-3.93-1.87-.38-.29,2.48-1.06,3.59-.48.7-1.98.27-1.98-.2v-9.81c1.72.25,4.29-.34,5.88,0ZM651.34,300.78c.11.82-.32,2.95.34,3.42.55.4,3.42-.23,3.77-.92,1.37-2.68-2.35-2.74-4.11-2.5Z"/>
  <path class="cls-1" d="M680.94,299.36c2.76-.17,8.44-.91,7.7,3.57-.42,2.55-2.06,2.16-2.36,2.49-.38.43,2.28,3.29,2.5,4.09-2.48,1.1-2.93-2.16-4.26-3.23-3.02-2.44-1.35,2.97-1.81,3.42h-1.79v-10.34ZM686.59,301.19c-.33-.53-3.13-.41-3.87-.41v3.21c.88-.15,2.95.29,3.59-.16.43-.3.51-2.28.28-2.65Z"/>
  <path class="cls-1" d="M575.91,299.36c1.75.37,2.43,3.08,1.77,4.63-.31.74-1.96,1.48-1.97,1.63-.07.98,2.8,3.47,2.16,4.08-2.76.86-3.08-3.85-5.16-3.93-.75-.03-.47,0-.54.53-.24,1.62.86,3.76-1.78,3.4v-10.34c1.62.23,4.03-.32,5.53,0ZM571.81,304c5.89.98,5.88-4.19,0-3.21v3.21Z"/>
  <path class="cls-12" d="M662.3,299.08c7.17-1.24,7.62,9.55,2.33,10.53-7.69,1.42-7.75-9.6-2.33-10.53ZM662.29,300.86c-3.18.75-2.59,8.11,1.62,7.35,3.41-.61,3.8-8.64-1.62-7.35Z"/>
  <path class="cls-12" d="M730.08,299.09c7.66-.93,7.42,12.2-.73,10.53-4.42-.91-4.72-9.87.73-10.53ZM729.69,300.86c-3.13.74-2.59,8.04,1.62,7.35,3.93-.64,3.59-8.58-1.62-7.35Z"/>
  <path class="cls-1" d="M552.19,301.85c-.81.72-4.9-2.83-5.36-.17s4.08,1.42,5.32,3.6c2.35,4.11-5.17,5.91-7.12,3.2-.85-1.19-.43-2.75,1.09-1.81.28.17.4.78.74,1.04,1.69,1.28,4.59-.16,3.49-1.89-.57-.91-6.51-.33-5.58-4.43.75-3.34,7.03-3.23,7.42.45Z"/>
  <path class="cls-13" d="M589.64,300.78h-4.99v2.85c.71.12,4.48-.17,4.64,0,.04.05.04.98,0,1.24-.06.41-4,.07-4.64.18v2.86c1.04.18,5.03-.48,5.35.54.14.43-.23,1.24-.53,1.24h-6.6v-10.16s.5-.53.53-.53h5.71c.47,0,.65,1.32.53,1.78Z"/>
  <path class="cls-13" d="M523.13,299c.99.17,1.01.9.89,1.78h-4.99v2.85c.49.5,5.63-1.14,4.99,1.42h-4.99v2.85h4.99v1.78h-6.78v-10.16s.5-.53.53-.53c1.55,0,3.96-.23,5.35,0Z"/>
  <path class="cls-1" d="M598.56,301.85c-1.91.72-2.2-.83-2.71-1.01-.95-.34-3-.07-3,1.19,0,2.3,6.46.65,5.69,5.33-.57,3.52-7.97,3.14-7.82-.87,1.99-.51,1.61.62,2.5,1.23,1.17.79,3.66.66,3.54-1.06-.16-2.24-5.66-.58-5.72-4.62s6.96-4.06,7.52-.18Z"/>
  <path class="cls-13" d="M624.23,299.36l6.78-.36v1.79h-4.99v2.85c.71.12,4.48-.17,4.64,0,.04.05.04.98,0,1.24-.06.41-4,.07-4.64.18v2.86c1.04.18,5.03-.48,5.35.54.14.43-.23,1.24-.53,1.24h-6.6v-10.34Z"/>
  <path class="cls-1" d="M639.92,301.85c-1.76.42-2.11-1.1-3.74-1.11s-2.81,1.3-1.23,2.34c1.93,1.27,5,.02,5,3.59,0,4.36-7.65,4.03-7.87-.18,2.28-.55,2.86,2.96,5.46,1.36,3.24-1.99-4.22-2.93-4.92-4.58-1.92-4.54,6.54-6.1,7.3-1.42Z"/>
  <path class="cls-1" d="M536.5,299.36c1.18.29,6.12-.67,6.75.03.15.16-.04,1.03.03,1.4h-4.99c-1.33,4.7,4.29,2.11,4.99,2.85.05.05.07,1.42,0,1.42h-4.99v2.85h5.35v1.78h-6.6s-.53-.5-.53-.53v-9.81Z"/>
  <path class="cls-1" d="M569.31,309.7c-.19.19-1.27-.05-1.63-.32-.62-.47-.69-1.99-.91-2.13-.18-.12-4-.12-4.19,0-.21.14-.29,1.65-.91,2.13-.36.28-1.45.51-1.63.32-.38-.38,3.09-9.89,3.56-10.17.57-.34,1.88-.35,2.33.18.29.35,2.96,7.62,3.21,8.56.09.34.33,1.27.17,1.43ZM565.03,301.5c-.58-.61-.6.19-.74.5-.23.52-1.29,3.52-1.04,3.78h2.85c-.15-.62-.92-4.12-1.07-4.28Z"/>
  <path class="cls-13" d="M496.92,299.36c.19-.28,1.57-.66,1.78.54.36,1.97.24,7-1.07,8.56-1.98,2.36-7.14,1.03-7.14-1.07v-8.02c0-.06,1.15-.34,1.21-.33,1.38.27-.2,6.59,1.08,8.2,1.44,1.81,4.13.5,4.13-1.28,0-.98-.18-6.32,0-6.6Z"/>
  <path class="cls-12" d="M695.17,299.39l3.6,10.3c-2.69.81-2.09-2.08-2.53-2.46-.17-.15-4.39-.14-4.56,0-.55.48.01,3.34-2.54,2.45.59-1.28,3.19-9.94,3.61-10.3.13-.11,2.3-.11,2.42,0ZM695.56,305.78l-1.78-4.27-1.43,4.27h3.21Z"/>
  <path class="cls-12" d="M717.31,309.7c-.11.11-1.13,0-1.43-.17-.67-.4-.49-2-1.29-2.28-.41-.14-3.77-.13-4,.01-.46.29-.54,3.18-2.55,2.44.37-1.32,3.16-9.99,3.62-10.28.41-.25,1.88-.16,2.27.29.25,1.41,3.88,9.49,3.38,9.99ZM713.03,301.5c-.58-.61-.6.19-.74.5-.21.47-1.19,3.62-1.03,3.78h2.85c.16-.16-.92-4.12-1.07-4.28Z"/>
  <path class="cls-12" d="M615.68,299.36v6.6c0,1.64,2.71,3.24,4.09,1.6.19-.23.9-2.12.9-2.31v-5.88c0-.07,1.43-.07,1.43,0v7.67c0,.38-1.04,1.73-1.52,2.04-2.55,1.67-6.68.03-6.68-3.11v-6.6h1.78Z"/>
  <path class="cls-13" d="M648.49,299v1.79s-3.21,0-3.21,0v8.92h-1.78v-8.92c0-.16-3.06.16-3.21,0-.2-.21.08-1.78.54-1.78h7.67Z"/>
  <path class="cls-1" d="M679.87,299.36c1.13,2.35-3.21,1.16-3.21,1.43v8.92h-1.78v-8.92c0-.27-4.34.92-3.21-1.43h8.2Z"/>
  <path class="cls-14" d="M560.75,299.36c1.13,2.35-3.21,1.16-3.21,1.43v8.92c-.47.12-1.78-.07-1.78-.53v-8.38c0-.21-3.93.74-3.21-1.43h8.2Z"/>
  <path class="cls-12" d="M724.45,299.36v8.02c0,.09-.7,1.35-.83,1.49-1.77,1.93-6.29.66-5.95-2.38,2.33-.42,1.44.5,2.13,1.24.85.91,2.86.39,2.86-.71v-7.67h1.78Z"/>
  <path class="cls-12" d="M489.07,299.36c1.13,2.35-3.21,1.16-3.21,1.43v8.92c0,.07-1.43.07-1.43,0v-8.92c0-.27-4.34.92-3.21-1.43h7.85Z"/>
  <path class="cls-13" d="M515.11,309.7h-1.78v-10.16c0-.67,1.78-.67,1.78,0v10.16Z"/>
  <rect class="cls-7" x="356.81" y="211.7" width="435.87" height="120" rx="13.55" ry="13.55"/>
  <g>
    <circle class="cls-9" cx="777.42" cy="317.92" r="4.99"/>
    <path class="cls-6" d="M779.36,317.38h-1.4v-1.4c0-.3-.25-.55-.55-.55h0c-.3,0-.55.25-.55.55v1.4h-1.4c-.3,0-.55.25-.55.55s.25.55.55.55h1.4v1.4c0,.3.25.55.55.55h0c.3,0,.55-.25.55-.55v-1.4h1.4c.3,0,.55-.25.55-.55s-.25-.55-.55-.55Z"/>
  </g>
  <g>
    <circle class="cls-9" cx="777.42" cy="226.07" r="4.99"/>
    <path class="cls-6" d="M779.36,225.52h-1.4v-1.4c0-.3-.25-.55-.55-.55h0c-.3,0-.55.25-.55.55v1.4h-1.4c-.3,0-.55.25-.55.55s.25.55.55.55h1.4v1.4c0,.3.25.55.55.55h0c.3,0,.55-.25.55-.55v-1.4h1.4c.3,0,.55-.25.55-.55s-.25-.55-.55-.55Z"/>
  </g>
  <g>
    <circle class="cls-9" cx="372.81" cy="225.47" r="4.99"/>
    <path class="cls-6" d="M374.75,224.93h-1.4v-1.4c0-.3-.25-.55-.55-.55h0c-.3,0-.55.25-.55.55v1.4h-1.4c-.3,0-.55.25-.55.55s.25.55.55.55h1.4v1.4c0,.3.25.55.55.55h0c.3,0,.55-.25.55-.55v-1.4h1.4c.3,0,.55-.25.55-.55s-.25-.55-.55-.55Z"/>
  </g>
  <g>
    <circle class="cls-9" cx="375.3" cy="317.92" r="4.99"/>
    <path class="cls-6" d="M377.25,317.38h-1.4v-1.4c0-.3-.25-.55-.55-.55h0c-.3,0-.55.25-.55.55v1.4h-1.4c-.3,0-.55.25-.55.55s.25.55.55.55h1.4v1.4c0,.3.25.55.55.55h0c.3,0,.55-.25.55-.55v-1.4h1.4c.3,0,.55-.25.55-.55s-.25-.55-.55-.55Z"/>
  </g>
</svg>
